<?xml version="1.0" standalone="no"?><svg xmlns="http://www.w3.org/2000/svg" viewBox="0 0 1440 320"><path fill="#fff" fill-opacity="1" d="M0,192L40,202.7C80,213,160,235,240,245.3C320,256,400,256,480,224C560,192,640,128,720,85.3C800,43,880,21,960,64C1040,107,1120,213,1200,256C1280,299,1360,277,1400,266.7L1440,256L1440,320L1400,320C1360,320,1280,320,1200,320C1120,320,1040,320,960,320C880,320,800,320,720,320C640,320,560,320,480,320C400,320,320,320,240,320C160,320,80,320,40,320L0,320Z"></path></svg>